PathFileType	4	(X/Y/Z)	/Users/itak/Documents/Research/Walk-IL/dataset/trc/00319_00011.trc
DataRate	CameraRate	NumFrames	NumMarkers	Units	OrigDataRate	OrigDataStartFrame	OrigNumFrames
100.000000	100.000000	4	57	mm	100.000000	145	583
Frame#	Time	RPSI			LPSI			L3			STRN			T10			C7			CLAV			RBAK			LBAK			LSHO			LUPA			LAEL			LAOL			LWPS			LFRA			LHPS			RSHO			RUPA			RAEL			RAOL			RWTS			RWPS			RFRA			RIFD			RHTS			RHPS			RBHD			LFHD			RFHD			LBHD			LHIP			RASI			LASI			LKNE			LTHI			LANK			LTIP			LTOE			LMT1			LMT5			LHEE			RKNE			RTHI			RANK			RTIP			RTOE			RMT5			RHEE			RHIP			RMT1			LWTS			LIFD			LHTS			*53			*54			*55			*56			
		X1	Y1	Z1	X2	Y2	Z2	X3	Y3	Z3	X4	Y4	Z4	X5	Y5	Z5	X6	Y6	Z6	X7	Y7	Z7	X8	Y8	Z8	X9	Y9	Z9	X10	Y10	Z10	X11	Y11	Z11	X12	Y12	Z12	X13	Y13	Z13	X14	Y14	Z14	X15	Y15	Z15	X16	Y16	Z16	X17	Y17	Z17	X18	Y18	Z18	X19	Y19	Z19	X20	Y20	Z20	X21	Y21	Z21	X22	Y22	Z22	X23	Y23	Z23	X24	Y24	Z24	X25	Y25	Z25	X26	Y26	Z26	X27	Y27	Z27	X28	Y28	Z28	X29	Y29	Z29	X30	Y30	Z30	X31	Y31	Z31	X32	Y32	Z32	X33	Y33	Z33	X34	Y34	Z34	X35	Y35	Z35	X36	Y36	Z36	X37	Y37	Z37	X38	Y38	Z38	X39	Y39	Z39	X40	Y40	Z40	X41	Y41	Z41	X42	Y42	Z42	X43	Y43	Z43	X44	Y44	Z44	X45	Y45	Z45	X46	Y46	Z46	X47	Y47	Z47	X48	Y48	Z48	X49	Y49	Z49	X50	Y50	Z50	X51	Y51	Z51	X52	Y52	Z52	X53	Y53	Z53	X54	Y54	Z54	X55	Y55	Z55	X56	Y56	Z56	X57	Y57	Z57	

146	1.45	-1581.77001953125	986.8956298828125	22.79063415527344	-1578.480102539062	987.7265625	-106.5134506225586	-1585.0068359375	1044.937377929688	-37.88346862792969	-1360.338623046875	1216.9150390625	-43.88632965087891	-1603.06591796875	1165.93798828125	-51.32243347167969	-1553.756713867188	1413.545288085938	-63.63194274902344	-1400.920288085938	1341.730346679688	-49.2046012878418	-1610.177612304688	1276.113525390625	2.475820779800415	-1557.594360351562	1376.630615234375	-166.663330078125	-1466.6064453125	1386.411865234375	-215.6257476806641	-1477.957153320312	1266.653076171875	-285.4870300292969	-1452.97998046875	1061.067260742188	-289.6653747558594	-1524.790283203125	1047.553955078125	-246.5058746337891	-1392.77197265625	806.360107421875	-284.6440734863281	-1434.392211914062	956.717041015625	-290.4497375488281	-1394.627685546875	735.5518798828125	-277.3736877441406	-1502.212158203125	1393.024291992188	102.9323196411133	-1515.62158203125	1327.993286132812	167.2029418945312	-1502.478393554688	1057.659912109375	198.570556640625	-1549.209594726562	1051.01904296875	116.1734161376953	-1394.661254882812	830.24755859375	140.9890441894531	-1426.765258789062	814.1939086914062	208.6246032714844	-1476.0732421875	989.6980590820312	203.3670806884766	-1377.498657226562	656.7367553710938	153.5926513671875	-1366.2646484375	736.2444458007812	162.3516082763672	-1412.047119140625	730.7064819335938	204.6498565673828	-1538.906616210938	1597.304809570312	15.09403228759766	-1356.090942382812	1636.5341796875	-78.82532501220703	-1379.800659179688	1634.600219726562	18.89408874511719	-1528.7275390625	1588.957153320312	-129.0152282714844	-1490.068481445312	926.8165893554688	-207.7601318359375	-1399.927490234375	954.7634887695312	95.24885559082031	-1369.93212890625	948.861572265625	-142.9783935546875	-1466.904052734375	467.1642456054688	-184.9704437255859	-1455.578491210938	604.9088134765625	-195.6241455078125	-1559.147583007812	49.46299743652344	-165.7947998046875	-1514.773681640625	251.8646087646484	-187.1490783691406	-1355.962890625	46.51544570922852	-99.37924957275391	-1424.582153320312	33.89392852783203	-61.22476196289062	-1432.913452148438	46.19537734985352	-174.3508911132812	-1595.843994140625	46.00099182128906	-99.185302734375	-1496.446166992188	462.1822204589844	105.1761932373047	-1454.959228515625	728.0784301757812	147.2810821533203	-1559.380249023438	53.59588241577148	70.05362701416016	-1493.76416015625	341.9968566894531	94.29274749755859	-1364.459350585938	46.57270050048828	26.37619209289551	-1457.667358398438	42.49539184570312	93.80192565917969	-1608.87109375	50.59291458129883	20.2917594909668	-1508.02978515625	928.0364990234375	133.3045959472656	-1418.435546875	40.7307243347168	-16.71688842773438	-1363.94970703125	818.5323486328125	-222.5982971191406	-1358.66650390625	657.8858032226562	-213.1708526611328	-1353.62890625	735.2144165039062	-233.1548919677734	nan	nan	nan	nan	nan	nan	nan	nan	nan	nan	nan	nan	
147	1.46	-1581.650146484375	986.93896484375	22.74579811096191	-1578.41455078125	987.7520751953125	-106.57177734375	-1584.95849609375	1044.982421875	-37.88998794555664	-1360.249633789062	1216.912963867188	-43.87103652954102	-1602.937744140625	1165.9619140625	-51.37530899047852	-1553.699340820312	1413.604858398438	-63.6063117980957	-1400.806640625	1341.750854492188	-49.19565200805664	-1610.093872070312	1276.148681640625	2.428668975830078	-1557.451171875	1376.704956054688	-166.6273956298828	-1466.514892578125	1386.476318359375	-215.6079406738281	-1477.795654296875	1266.747924804688	-285.4744262695312	-1452.746459960938	1061.156616210938	-289.6649169921875	-1524.612548828125	1047.617431640625	-246.5726470947266	-1392.356811523438	806.4830322265625	-284.5766906738281	-1433.978271484375	956.8096313476562	-290.3841857910156	-1394.194091796875	735.6734619140625	-277.2904357910156	-1502.171997070312	1393.003051757812	102.9344711303711	-1515.531005859375	1327.95361328125	167.229736328125	-1502.354248046875	1057.595825195312	198.5304565429688	-1549.052368164062	1050.970581054688	116.1653442382812	-1394.44775390625	830.2398071289062	140.8441314697266	-1426.467163085938	814.1346435546875	208.4299468994141	-1475.871459960938	989.625	203.2955780029297	-1377.128295898438	656.8045043945312	153.3414916992188	-1366.116577148438	736.3225708007812	162.2546539306641	-1411.687744140625	730.7656860351562	204.4152984619141	-1538.695434570312	1597.302734375	15.3609037399292	-1356.091552734375	1636.584228515625	-78.88580322265625	-1379.5234375	1634.57373046875	18.85061836242676	-1528.8291015625	1589.099731445312	-128.7436981201172	-1490.1083984375	926.814208984375	-207.8147430419922	-1399.871215820312	954.7138671875	95.13589477539062	-1369.87158203125	948.8568725585938	-143.1003723144531	-1466.9150390625	467.1460876464844	-185.00244140625	-1455.740356445312	604.94775390625	-195.7464141845703	-1559.150146484375	49.46344375610352	-165.7937469482422	-1514.78076171875	251.8597717285156	-187.1626586914062	-1355.964233398438	46.519775390625	-99.38245391845703	-1424.585327148438	33.90042877197266	-61.21337509155273	-1432.914794921875	46.19610214233398	-174.3515777587891	-1595.844360351562	45.99946212768555	-99.18300628662109	-1496.415161132812	462.188232421875	105.1612396240234	-1454.817993164062	727.9622192382812	147.1123962402344	-1559.365600585938	53.57410049438477	70.06574249267578	-1493.741821289062	341.9914855957031	94.25263214111328	-1364.435913085938	46.5296630859375	26.36460876464844	-1457.6572265625	42.50197601318359	93.79745483398438	-1608.857177734375	50.59526062011719	20.29143524169922	-1507.925659179688	928.0410766601562	133.2645721435547	-1418.424682617188	40.72613143920898	-16.71962547302246	-1363.7177734375	818.658447265625	-222.6287536621094	-1358.167236328125	658.0394287109375	-213.1816253662109	-1353.046142578125	735.384033203125	-233.1906433105469	nan	nan	nan	nan	nan	nan	nan	nan	nan	nan	nan	nan	
148	1.47	-1581.520874023438	986.986083984375	22.69719505310059	-1578.322387695312	987.7771606445312	-106.6429595947266	-1584.903930664062	1045.029052734375	-37.89695739746094	-1360.1552734375	1216.91748046875	-43.8585205078125	-1602.777221679688	1165.972778320312	-51.43068695068359	-1553.641357421875	1413.66015625	-63.58876800537109	-1400.686889648438	1341.7734375	-49.19617462158203	-1610.001586914062	1276.182495117188	2.373603105545044	-1557.322143554688	1376.76953125	-166.61279296875	-1466.42333984375	1386.537353515625	-215.5973663330078	-1477.629028320312	1266.840087890625	-285.4707641601562	-1452.51416015625	1061.23974609375	-289.6654052734375	-1524.452270507812	1047.681030273438	-246.65478515625	-1391.956909179688	806.6048583984375	-284.4957885742188	-1433.570190429688	956.895263671875	-290.318359375	-1393.767456054688	735.790771484375	-277.181640625	-1502.129028320312	1392.989135742188	102.9302597045898	-1515.434204101562	1327.919677734375	167.2528381347656	-1502.215942382812	1057.53857421875	198.4875946044922	-1548.897583007812	1050.933227539062	116.1678924560547	-1394.201171875	830.24853515625	140.7152404785156	-1426.165283203125	814.0790405273438	208.2478942871094	-1475.649169921875	989.5743408203125	203.2171173095703	-1376.805541992188	656.8684692382812	153.1213684082031	-1365.955810546875	736.4076538085938	162.1287536621094	-1411.325805664062	730.8262939453125	204.1981201171875	-1538.491455078125	1597.289306640625	15.61997222900391	-1356.090454101562	1636.635009765625	-78.94698333740234	-1379.263427734375	1634.55810546875	18.82967948913574	-1528.9267578125	1589.231079101562	-128.4759674072266	-1490.13720703125	926.8108520507812	-207.8754425048828	-1399.814208984375	954.6670532226562	95.02789306640625	-1369.790893554688	948.854248046875	-143.2310028076172	-1466.928833007812	467.1298522949219	-185.0334777832031	-1455.833251953125	604.9638671875	-195.8280487060547	-1559.152221679688	49.46392440795898	-165.7926635742188	-1514.790161132812	251.85546875	-187.1771697998047	-1355.966430664062	46.52335357666016	-99.38475799560547	-1424.58984375	33.90900802612305	-61.19696426391602	-1432.916625976562	46.19771957397461	-174.3520812988281	-1595.84619140625	45.9984245300293	-99.18031311035156	-1496.389038085938	462.2001647949219	105.153434753418	-1454.671508789062	727.8366088867188	146.9194488525391	-1559.352172851562	53.55329132080078	70.07468414306641	-1493.72509765625	341.9873046875	94.21237182617188	-1364.405395507812	46.47586441040039	26.34712982177734	-1457.658203125	42.49945449829102	93.79708099365234	-1608.841796875	50.59320068359375	20.2920970916748	-1507.80712890625	928.05029296875	133.2250823974609	-1418.41162109375	40.71915054321289	-16.7235164642334	-1363.474609375	818.78564453125	-222.6399383544922	-1357.675415039062	658.1893310546875	-213.1671600341797	-1352.469970703125	735.5496826171875	-233.2007904052734	nan	nan	nan	nan	nan	nan	nan	nan	nan	nan	nan	nan	
149	1.48	-1581.387329101562	987.0357666015625	22.64512634277344	-1578.208984375	987.80126953125	-106.7221984863281	-1584.845703125	1045.075927734375	-37.90392684936523	-1360.055541992188	1216.928100585938	-43.84786605834961	-1602.594970703125	1165.973266601562	-51.48247146606445	-1553.581298828125	1413.710571289062	-63.57879638671875	-1400.561767578125	1341.797973632812	-49.20577621459961	-1609.901489257812	1276.21484375	2.31303858757019	-1557.20361328125	1376.823364257812	-166.61669921875	-1466.3310546875	1386.592529296875	-215.5936431884766	-1477.461791992188	1266.925903320312	-285.4765930175781	-1452.277954101562	1061.314575195312	-289.6639099121094	-1524.304565429688	1047.740844726562	-246.7475128173828	-1391.57568359375	806.7208251953125	-284.4044799804688	-1433.174438476562	956.9710693359375	-290.2536010742188	-1393.348022460938	735.9003295898438	-277.05126953125	-1502.080932617188	1392.982299804688	102.9203109741211	-1515.330200195312	1327.891235351562	167.2716979980469	-1502.061889648438	1057.488525390625	198.4435729980469	-1548.751586914062	1050.908203125	116.1799011230469	-1393.929565429688	830.2769165039062	140.5954742431641	-1425.873168945312	814.031982421875	208.0919952392578	-1475.4052734375	989.5453491210938	203.130859375	-1376.528442382812	656.9292602539062	152.9346313476562	-1365.789184570312	736.4814453125	161.966552734375	-1410.973388671875	730.8816528320312	204.0000457763672	-1538.281127929688	1597.252685546875	15.88637256622314	-1356.0849609375	1636.68505859375	-79.00759124755859	-1379.017578125	1634.552490234375	18.82684516906738	-1529.0146484375	1589.346435546875	-128.2164001464844	-1490.154052734375	926.8065185546875	-207.9421997070312	-1399.75830078125	954.6253662109375	94.92607116699219	-1369.69189453125	948.8526611328125	-143.3667602539062	-1466.947143554688	467.11572265625	-185.0647583007812	-1455.8447265625	604.9522094726562	-195.8612976074219	-1559.153930664062	49.4643440246582	-165.79150390625	-1514.803100585938	251.8514404296875	-187.1924133300781	-1355.969116210938	46.52604293823242	-99.38613891601562	-1424.594360351562	33.91884613037109	-61.17791366577148	-1432.918823242188	46.19971084594727	-174.3522338867188	-1595.849243164062	45.9980583190918	-99.17724609375	-1496.368774414062	462.2173156738281	105.1475219726562	-1454.521362304688	727.7026977539062	146.7011260986328	-1559.340698242188	53.53530883789062	70.08051300048828	-1493.714477539062	341.9844665527344	94.17256927490234	-1364.368408203125	46.41243362426758	26.32427215576172	-1457.671997070312	42.48671340942383	93.80107116699219	-1608.826416015625	50.58832931518555	20.29261207580566	-1507.681274414062	928.0655517578125	133.1856994628906	-1418.395385742188	40.71026611328125	-16.72777938842773	-1363.206787109375	818.91552734375	-222.6283569335938	-1357.189453125	658.3314819335938	-213.1305236816406	-1351.900024414062	735.7075805664062	-233.1888580322266	nan	nan	nan	nan	nan	nan	nan	nan	nan	nan	nan	nan	
